<svg id="svg" version="1.1" xmlns="http://www.w3.org/2000/svg" xmlns:xlink="http://www.w3.org/1999/xlink" width="400" height="167.33612511751133" viewBox="0, 0, 400,167.33612511751133"><g id="svgg"><path id="path0" d="M86.627 105.951 C 86.834 105.991,87.134 105.990,87.294 105.948 C 87.453 105.906,87.283 105.874,86.917 105.875 C 86.550 105.877,86.420 105.911,86.627 105.951 M73.705 115.167 C 73.705 115.487,73.740 115.619,73.782 115.458 C 73.823 115.298,73.823 115.035,73.782 114.875 C 73.740 114.715,73.705 114.846,73.705 115.167 " stroke="none" fill="#ec6b34" fill-rule="evenodd"></path><path id="path1" d="M307.246 111.250 C 307.246 118.767,307.267 121.817,307.292 118.029 C 307.317 114.241,307.317 108.091,307.292 104.363 C 307.267 100.634,307.246 103.733,307.246 111.250 " stroke="none" fill="#24448c" fill-rule="evenodd"></path><path id="path2" d="M68.799 10.583 C 68.772 10.606,67.887 10.676,66.833 10.739 C 63.849 10.919,61.542 11.114,60.870 11.243 C 60.694 11.277,60.145 11.352,59.650 11.410 C 55.800 11.861,48.933 13.716,45.083 15.344 C 44.808 15.460,44.540 15.562,44.486 15.569 C 44.391 15.583,43.834 15.826,41.250 16.981 C 40.517 17.308,39.862 17.653,39.794 17.747 C 39.727 17.840,39.671 17.856,39.669 17.783 C 39.667 17.647,37.032 19.013,35.667 19.858 C 35.254 20.114,34.619 20.485,34.255 20.683 C 33.891 20.882,33.404 21.171,33.172 21.326 C 32.940 21.481,32.188 21.976,31.500 22.425 C 30.174 23.293,27.418 25.283,26.995 25.680 C 26.856 25.810,26.406 26.174,25.996 26.490 C 25.261 27.054,24.967 27.313,22.847 29.265 C 20.356 31.558,17.656 34.452,15.783 36.833 C 15.170 37.612,14.556 38.369,14.418 38.514 C 14.280 38.659,14.167 38.831,14.167 38.896 C 14.167 38.961,14.011 39.180,13.821 39.382 C 13.339 39.896,10.833 43.608,10.833 43.808 C 10.833 43.898,10.764 43.997,10.680 44.028 C 10.261 44.180,6.742 50.731,5.905 52.917 C 5.695 53.467,5.377 54.217,5.199 54.583 C 5.021 54.950,4.488 56.450,4.015 57.917 C 2.962 61.176,2.871 61.475,2.764 62.000 C 2.717 62.229,2.494 63.129,2.268 64.000 C 2.042 64.871,1.822 65.808,1.778 66.083 C 1.734 66.358,1.582 67.146,1.440 67.833 C 1.299 68.521,1.138 69.421,1.083 69.833 C 1.028 70.246,0.953 70.696,0.916 70.833 C 0.879 70.971,0.808 71.421,0.758 71.833 C 0.708 72.246,0.521 73.633,0.343 74.917 C 0.042 77.091,-0.050 85.842,0.224 86.295 C 0.265 86.362,0.346 87.017,0.404 87.750 C 0.551 89.610,0.660 90.532,0.925 92.167 C 1.322 94.612,1.886 97.400,2.265 98.789 C 2.409 99.318,2.636 100.200,2.770 100.750 C 3.069 101.974,4.935 107.573,5.208 108.063 C 5.316 108.257,5.414 108.454,5.425 108.500 C 5.480 108.732,5.856 109.621,6.013 109.894 C 6.112 110.065,6.217 110.327,6.247 110.477 C 6.393 111.219,9.592 117.393,10.691 119.053 C 11.044 119.587,11.333 120.064,11.333 120.113 C 11.333 120.162,11.558 120.486,11.833 120.833 C 12.108 121.181,12.333 121.541,12.333 121.635 C 12.333 121.729,12.396 121.831,12.472 121.861 C 12.548 121.892,12.874 122.330,13.195 122.836 C 13.517 123.342,13.885 123.867,14.015 124.003 C 14.144 124.139,14.461 124.561,14.720 124.942 C 16.404 127.424,21.071 132.415,24.514 135.417 C 25.311 136.112,25.440 136.218,26.665 137.169 C 27.077 137.489,27.489 137.834,27.582 137.937 C 28.216 138.640,33.811 142.344,36.411 143.782 C 41.499 146.595,49.424 149.749,53.500 150.581 C 53.729 150.628,54.404 150.771,55.000 150.899 C 55.596 151.027,56.458 151.212,56.917 151.310 C 61.745 152.341,66.519 152.742,72.417 152.611 C 78.818 152.470,82.099 152.022,89.500 150.278 C 94.136 149.186,100.074 146.900,102.022 145.458 C 103.127 144.640,103.131 144.634,102.583 144.745 C 101.361 144.991,99.075 145.738,97.250 146.488 C 96.271 146.891,95.913 147.030,95.878 147.023 C 95.857 147.018,95.557 147.133,95.211 147.277 C 94.582 147.540,93.115 147.961,92.333 148.103 C 92.104 148.145,91.692 148.247,91.417 148.331 C 90.870 148.498,89.346 148.778,88.167 148.928 C 87.754 148.980,86.779 149.127,86.000 149.253 C 81.634 149.963,75.031 150.283,71.750 149.944 C 71.200 149.887,70.188 149.794,69.500 149.738 C 64.448 149.322,58.526 148.082,53.667 146.421 C 52.429 145.998,51.099 145.505,50.710 145.326 C 50.322 145.147,49.964 145.000,49.917 145.000 C 49.686 145.000,45.509 143.018,45.167 142.746 C 45.029 142.637,44.354 142.256,43.667 141.899 C 42.979 141.542,42.379 141.210,42.333 141.161 C 42.141 140.954,39.475 139.333,39.328 139.333 C 39.239 139.333,39.166 139.277,39.165 139.208 C 39.164 139.140,38.696 138.784,38.124 138.419 C 37.551 138.053,37.058 137.697,37.028 137.627 C 36.997 137.557,36.866 137.500,36.736 137.500 C 36.606 137.500,36.500 137.425,36.500 137.333 C 36.500 137.242,36.426 137.167,36.335 137.167 C 36.187 137.167,35.135 136.430,34.258 135.712 C 34.080 135.566,33.405 135.068,32.758 134.606 C 30.079 132.690,26.496 129.315,24.473 126.802 C 19.867 121.080,15.768 114.191,12.841 107.250 C 12.764 107.067,12.590 106.654,12.454 106.333 C 12.318 106.013,12.045 105.263,11.847 104.667 C 11.649 104.071,11.441 103.471,11.383 103.333 C 11.326 103.196,11.271 103.046,11.261 103.000 C 11.251 102.954,11.068 102.354,10.854 101.667 C 10.057 99.106,9.990 98.881,9.926 98.569 C 9.890 98.394,9.667 97.363,9.430 96.279 C 8.957 94.108,8.837 93.496,8.743 92.750 C 8.660 92.097,8.443 90.607,8.415 90.500 C 8.403 90.454,8.333 89.742,8.259 88.917 C 8.185 88.092,8.100 87.229,8.070 87.000 C 8.039 86.771,8.008 84.933,7.999 82.917 C 7.982 78.896,8.170 76.138,8.687 72.833 C 8.780 72.237,8.883 71.563,8.916 71.333 C 8.967 70.979,9.180 69.946,9.571 68.158 C 10.003 66.178,10.304 65.093,11.114 62.583 C 11.439 61.575,11.719 60.675,11.736 60.583 C 11.752 60.492,11.869 60.229,11.995 60.000 C 12.120 59.771,12.205 59.583,12.184 59.583 C 12.128 59.583,12.332 59.001,12.601 58.391 C 12.729 58.103,12.833 57.817,12.833 57.756 C 12.833 57.551,15.190 52.474,15.751 51.472 C 15.973 51.075,16.349 50.375,16.587 49.917 C 16.825 49.458,17.146 48.887,17.301 48.647 C 17.456 48.407,17.918 47.657,18.328 46.980 C 18.737 46.304,19.116 45.712,19.169 45.667 C 19.223 45.621,19.634 45.021,20.083 44.333 C 20.533 43.646,20.947 43.046,21.003 43.000 C 21.060 42.954,21.433 42.467,21.832 41.917 C 23.825 39.168,28.945 33.622,31.554 31.387 C 33.138 30.029,36.379 27.495,37.583 26.672 C 38.317 26.171,39.062 25.628,39.240 25.464 C 39.417 25.300,39.630 25.167,39.712 25.167 C 39.793 25.167,40.248 24.917,40.722 24.612 C 42.318 23.586,42.579 23.430,43.917 22.712 C 45.238 22.004,48.982 20.167,49.106 20.167 C 49.141 20.167,49.488 20.021,49.877 19.843 C 53.060 18.385,59.716 16.345,63.250 15.745 C 63.525 15.698,64.125 15.591,64.583 15.507 C 65.042 15.423,65.904 15.304,66.500 15.243 C 67.096 15.182,67.733 15.105,67.917 15.072 C 69.950 14.704,78.536 14.597,80.750 14.911 C 81.025 14.950,81.925 15.063,82.750 15.163 C 85.874 15.539,85.790 15.525,88.750 16.150 C 90.033 16.421,91.796 16.842,92.667 17.086 C 93.537 17.330,94.325 17.547,94.417 17.568 C 94.743 17.644,97.778 18.648,98.177 18.812 C 98.401 18.904,99.483 19.331,100.583 19.762 C 103.690 20.977,107.169 22.641,110.016 24.274 C 110.713 24.673,111.328 25.000,111.383 25.000 C 111.438 25.000,111.817 25.225,112.224 25.500 C 112.632 25.775,113.042 26.000,113.135 26.000 C 113.229 26.000,113.331 26.056,113.361 26.125 C 113.392 26.194,113.897 26.575,114.485 26.973 C 116.168 28.112,116.543 28.383,117.178 28.917 C 117.505 29.192,118.096 29.679,118.492 30.000 C 118.888 30.321,119.296 30.661,119.398 30.756 C 120.558 31.835,125.162 35.979,125.410 36.168 C 125.805 36.468,124.466 34.693,123.094 33.097 C 121.255 30.958,117.743 27.553,115.917 26.138 C 115.366 25.711,114.990 25.406,114.444 24.944 C 114.246 24.775,113.558 24.292,112.917 23.869 C 112.275 23.446,111.712 23.054,111.667 22.997 C 111.621 22.941,111.245 22.675,110.831 22.406 C 109.637 21.630,109.432 21.505,109.167 21.386 C 109.029 21.325,108.879 21.226,108.833 21.168 C 108.435 20.660,99.735 16.333,99.112 16.333 C 98.995 16.333,98.826 16.260,98.736 16.170 C 98.604 16.037,95.208 14.747,94.583 14.592 C 94.492 14.569,94.304 14.506,94.167 14.453 C 93.816 14.316,91.153 13.512,90.750 13.422 C 90.567 13.381,89.756 13.160,88.949 12.932 C 88.141 12.704,87.279 12.480,87.032 12.436 C 86.785 12.391,86.021 12.236,85.333 12.091 C 79.747 10.915,76.077 10.476,72.132 10.512 C 70.325 10.528,68.825 10.560,68.799 10.583 M179.333 57.083 L 179.333 76.167 183.750 76.167 L 188.167 76.167 188.167 70.167 L 188.167 64.167 191.292 64.159 C 195.880 64.147,196.682 64.042,198.943 63.152 C 209.471 59.008,209.921 44.143,199.665 39.302 C 196.995 38.041,196.609 38.000,187.468 38.000 L 179.333 38.000 179.333 57.083 M195.706 46.561 C 199.201 48.292,199.272 53.642,195.825 55.433 C 194.931 55.897,194.863 55.905,191.542 55.969 L 188.167 56.034 188.167 51.086 L 188.167 46.138 191.625 46.195 C 194.579 46.244,195.174 46.297,195.706 46.561 M177.554 87.375 C 178.099 88.396,179.388 90.569,179.507 90.667 C 179.562 90.712,179.655 90.878,179.713 91.035 C 179.809 91.296,180.878 93.139,183.800 98.083 C 184.396 99.092,185.004 100.142,185.150 100.417 C 185.297 100.691,185.454 100.954,185.500 101.000 C 185.546 101.046,185.765 101.421,185.988 101.833 C 186.211 102.246,186.751 103.182,187.189 103.913 L 187.986 105.242 187.604 105.913 C 186.988 106.994,186.626 107.618,185.191 110.066 C 184.444 111.340,183.833 112.407,183.833 112.437 C 183.833 112.467,183.036 113.824,182.062 115.454 C 181.088 117.083,180.208 118.604,180.107 118.833 C 180.006 119.063,179.881 119.287,179.828 119.333 C 179.709 119.438,176.667 124.660,176.667 124.760 C 176.667 124.800,178.915 124.833,181.663 124.833 L 186.660 124.833 186.765 124.417 C 186.822 124.188,186.936 124.000,187.018 124.000 C 187.100 124.000,187.167 123.931,187.167 123.847 C 187.167 123.762,187.547 123.081,188.011 122.332 C 188.475 121.584,188.901 120.852,188.957 120.706 C 189.013 120.559,189.308 120.061,189.613 119.599 C 189.917 119.136,190.167 118.662,190.167 118.545 C 190.167 118.429,190.223 118.333,190.292 118.333 C 190.361 118.333,190.600 117.977,190.824 117.542 C 191.047 117.106,191.310 116.647,191.407 116.522 C 191.504 116.397,191.846 115.802,192.167 115.201 C 192.871 113.881,193.073 113.785,193.416 114.608 C 193.561 114.955,193.739 115.278,193.811 115.327 C 193.883 115.377,194.269 116.035,194.670 116.792 C 195.070 117.548,195.458 118.167,195.532 118.167 C 195.606 118.167,195.667 118.251,195.667 118.353 C 195.667 118.530,196.775 120.483,198.191 122.801 C 198.544 123.380,198.833 123.923,198.833 124.010 C 198.833 124.096,198.900 124.167,198.981 124.167 C 199.062 124.167,199.167 124.317,199.215 124.500 C 199.300 124.824,199.442 124.833,204.328 124.833 C 207.092 124.833,209.322 124.777,209.284 124.708 C 208.674 123.601,207.222 121.236,207.127 121.194 C 207.057 121.164,207.000 121.058,207.000 120.959 C 207.000 120.860,206.644 120.184,206.208 119.456 C 205.773 118.728,205.216 117.758,204.970 117.300 C 204.724 116.842,204.347 116.194,204.132 115.859 C 203.410 114.732,203.324 114.584,203.226 114.292 C 203.172 114.131,203.062 114.000,202.981 114.000 C 202.900 114.000,202.833 113.919,202.833 113.820 C 202.833 113.721,201.921 112.089,200.805 110.195 C 197.895 105.251,197.929 105.319,198.174 104.926 C 198.288 104.745,198.543 104.293,198.741 103.923 C 198.940 103.553,199.308 102.927,199.559 102.533 C 199.810 102.139,200.104 101.614,200.212 101.367 C 200.321 101.119,200.449 100.879,200.497 100.833 C 200.599 100.735,200.831 100.345,202.184 98.000 C 202.739 97.037,203.570 95.612,204.031 94.833 C 204.493 94.054,205.060 93.079,205.292 92.667 C 205.524 92.254,205.841 91.729,205.995 91.500 C 206.150 91.271,206.569 90.558,206.927 89.917 C 207.286 89.275,207.655 88.629,207.748 88.481 C 208.066 87.974,208.667 86.847,208.667 86.757 C 208.667 86.707,206.459 86.667,203.761 86.667 L 198.856 86.667 197.992 88.125 C 196.397 90.818,196.052 91.413,195.650 92.167 C 195.430 92.579,195.209 92.954,195.159 93.000 C 195.108 93.046,194.633 93.833,194.102 94.750 C 192.954 96.734,192.881 96.821,192.723 96.403 C 192.657 96.227,192.119 95.258,191.528 94.250 C 189.256 90.376,188.301 88.737,187.849 87.940 C 187.046 86.522,187.696 86.667,182.131 86.667 L 177.176 86.667 177.554 87.375 M61.875 97.887 L 61.865 103.608 65.391 103.581 C 67.330 103.566,70.006 103.542,71.337 103.527 L 73.757 103.500 73.768 97.833 L 73.780 92.167 67.832 92.167 L 61.885 92.167 61.875 97.887 M75.833 97.894 L 75.833 103.621 81.542 103.586 C 84.681 103.567,87.344 103.540,87.458 103.526 C 87.620 103.506,87.667 102.242,87.667 97.833 L 87.667 92.167 81.750 92.167 L 75.833 92.167 75.833 97.894 M61.863 111.569 L 61.826 117.315 64.954 117.263 C 66.675 117.235,69.361 117.201,70.923 117.189 L 73.764 117.167 73.765 111.517 L 73.767 105.866 67.834 105.845 L 61.901 105.823 61.863 111.569 M75.833 111.582 L 75.833 117.352 78.792 117.269 C 80.419 117.224,83.081 117.182,84.708 117.177 L 87.667 117.167 87.667 111.537 L 87.667 105.907 81.750 105.860 L 75.833 105.813 75.833 111.582 " stroke="none" fill="#e46b35" fill-rule="evenodd"></path><path id="path3" d="M67.083 0.260 C 61.895 1.068,59.341 1.513,56.500 2.101 C 55.813 2.243,55.025 2.399,54.750 2.448 C 52.701 2.810,48.796 4.117,47.703 4.805 C 47.119 5.174,47.364 5.202,48.096 4.851 C 50.198 3.843,55.194 2.822,60.417 2.334 C 61.517 2.231,62.642 2.110,62.917 2.066 C 64.276 1.847,74.838 1.854,76.750 2.075 C 80.158 2.469,81.733 2.664,82.167 2.745 C 82.396 2.787,83.333 2.941,84.250 3.087 C 89.327 3.895,97.840 6.388,100.963 7.981 C 101.304 8.155,101.638 8.309,101.705 8.323 C 102.165 8.417,106.749 10.597,107.833 11.236 C 108.063 11.371,109.175 12.018,110.307 12.673 C 113.333 14.425,118.941 18.275,120.418 19.614 C 120.601 19.780,121.239 20.329,121.834 20.833 C 138.157 34.655,147.651 52.822,149.598 73.957 L 149.709 75.164 148.980 74.931 C 148.332 74.724,145.590 73.744,143.750 73.062 C 143.383 72.926,142.596 72.637,142.000 72.420 C 141.404 72.202,140.279 71.790,139.500 71.504 C 137.659 70.827,135.432 70.038,134.551 69.750 C 134.166 69.624,133.716 69.449,133.551 69.361 C 133.263 69.207,133.248 69.517,133.199 76.304 C 133.171 80.211,133.127 83.429,133.100 83.455 C 133.045 83.510,131.219 82.551,130.938 82.320 C 130.400 81.877,127.894 80.056,127.528 79.843 C 127.323 79.723,127.257 68.588,127.404 58.542 C 127.421 57.327,127.377 56.333,127.306 56.333 C 127.047 56.333,124.431 55.093,117.458 51.666 L 114.500 50.212 114.484 52.147 C 114.475 53.212,114.443 54.683,114.413 55.417 C 114.384 56.150,114.348 58.305,114.334 60.206 C 114.320 62.107,114.250 63.698,114.179 63.742 C 114.053 63.820,109.561 62.682,107.333 62.009 C 106.737 61.829,105.688 61.536,105.000 61.359 C 103.428 60.953,101.989 60.559,100.917 60.242 C 100.458 60.106,98.958 59.689,97.583 59.315 C 96.208 58.940,93.996 58.335,92.667 57.971 C 91.337 57.606,89.950 57.235,89.583 57.147 C 89.217 57.059,87.979 56.719,86.833 56.392 C 85.688 56.066,84.637 55.771,84.500 55.737 C 83.648 55.529,81.830 55.036,78.000 53.973 C 76.671 53.604,75.208 53.201,74.750 53.078 C 74.292 52.955,73.204 52.656,72.333 52.413 C 69.229 51.547,67.842 51.226,67.976 51.403 C 68.171 51.661,72.044 56.379,72.247 56.607 C 72.504 56.894,79.464 65.278,80.047 66.002 C 80.313 66.333,81.785 68.116,84.586 71.500 C 85.838 73.012,87.062 74.506,87.306 74.819 C 87.957 75.654,89.555 77.570,89.681 77.667 C 89.741 77.712,90.261 78.350,90.838 79.083 C 91.414 79.817,92.193 80.759,92.568 81.178 C 92.943 81.597,93.825 82.647,94.528 83.511 C 95.230 84.376,96.979 86.508,98.414 88.250 C 99.848 89.992,101.485 91.979,102.050 92.667 C 102.615 93.354,103.119 93.954,103.170 94.000 C 103.257 94.079,105.933 97.343,107.737 99.570 C 108.189 100.127,109.014 101.116,109.571 101.768 C 110.128 102.419,110.696 103.096,110.833 103.273 C 111.152 103.684,112.714 105.556,112.830 105.667 C 112.877 105.712,113.201 106.104,113.549 106.538 C 113.897 106.971,114.272 107.421,114.383 107.538 C 114.493 107.654,114.788 108.025,115.039 108.361 C 115.290 108.696,115.592 109.071,115.710 109.194 C 115.911 109.402,117.845 111.736,119.750 114.071 C 120.208 114.633,120.710 115.240,120.864 115.421 C 121.019 115.602,121.542 116.237,122.028 116.833 C 122.513 117.429,122.952 117.954,123.004 118.000 C 123.055 118.046,123.767 118.908,124.586 119.917 C 125.405 120.925,126.119 121.787,126.172 121.833 C 126.226 121.879,126.377 122.073,126.510 122.264 C 126.740 122.597,127.477 123.486,128.917 125.166 C 129.283 125.593,129.821 126.237,130.110 126.597 C 131.294 128.064,135.909 133.646,136.636 134.490 C 137.065 134.988,137.565 135.588,137.747 135.823 C 138.046 136.210,139.336 137.779,140.224 138.833 C 140.417 139.063,140.902 139.650,141.301 140.140 C 141.701 140.629,142.164 141.192,142.331 141.390 C 143.061 142.257,145.375 145.065,146.748 146.750 C 147.570 147.758,148.284 148.621,148.335 148.667 C 148.387 148.712,148.911 149.350,149.500 150.083 C 150.089 150.817,150.613 151.454,150.663 151.500 C 150.714 151.546,150.960 151.833,151.211 152.138 C 151.621 152.637,151.667 152.656,151.667 152.329 C 151.667 151.743,150.707 145.329,150.159 142.250 C 149.882 140.692,149.542 138.742,149.403 137.917 C 149.265 137.092,149.047 135.892,148.919 135.250 C 148.790 134.608,148.650 133.858,148.607 133.583 C 148.565 133.308,148.294 131.846,148.005 130.333 C 147.716 128.821,147.443 127.381,147.398 127.135 C 147.287 126.527,147.824 125.360,150.831 119.667 C 151.485 118.429,152.194 117.042,152.407 116.583 C 152.620 116.125,153.054 115.188,153.371 114.500 C 153.880 113.399,154.939 110.431,155.727 107.897 C 156.653 104.920,158.007 98.766,158.418 95.667 C 158.473 95.254,158.584 94.467,158.665 93.917 C 158.746 93.367,158.862 92.317,158.924 91.583 C 158.986 90.850,159.073 90.025,159.118 89.750 C 159.456 87.673,159.210 76.259,158.772 73.750 C 158.725 73.475,158.602 72.612,158.500 71.833 C 157.727 65.925,155.552 57.458,153.770 53.417 C 153.649 53.142,153.452 52.654,153.332 52.333 C 153.213 52.012,152.939 51.354,152.724 50.870 C 152.509 50.386,152.333 49.946,152.333 49.892 C 152.333 48.950,146.305 38.386,143.978 35.250 C 141.955 32.523,139.933 29.984,138.750 28.683 C 135.934 25.586,132.926 22.604,131.083 21.083 C 130.442 20.553,129.842 20.033,129.750 19.927 C 129.280 19.383,124.249 15.628,122.257 14.333 C 115.407 9.881,105.375 5.235,99.384 3.743 C 99.219 3.702,98.371 3.477,97.500 3.244 C 87.904 0.674,73.499 -0.739,67.083 0.260 M358.083 41.687 C 357.533 41.865,355.846 42.372,354.333 42.813 L 351.583 43.615 351.537 46.224 L 351.492 48.833 349.335 48.833 L 347.178 48.833 347.131 52.833 L 347.083 56.834 349.278 56.833 L 351.473 56.833 351.544 63.208 C 351.623 70.208,351.672 70.596,352.704 72.542 C 354.305 75.556,358.533 76.856,364.625 76.207 L 365.333 76.132 365.333 72.411 L 365.333 68.690 363.872 68.738 C 362.126 68.796,360.751 68.488,360.167 67.907 L 359.750 67.493 359.702 62.163 L 359.653 56.833 362.493 56.833 L 365.333 56.833 365.333 52.833 L 365.333 48.833 362.500 48.833 L 359.667 48.833 359.667 45.083 C 359.667 40.809,359.815 41.127,358.083 41.687 M241.917 48.200 C 239.962 48.425,236.287 49.765,235.460 50.554 C 235.344 50.665,234.912 51.013,234.500 51.328 C 225.531 58.187,228.496 72.971,239.510 76.318 C 250.335 79.607,261.114 68.920,257.517 58.465 C 257.350 57.980,257.206 57.526,257.197 57.455 C 257.187 57.385,257.027 56.982,256.840 56.559 C 256.653 56.137,256.500 55.761,256.500 55.725 C 256.500 55.456,254.705 53.056,253.908 52.259 C 250.872 49.223,246.343 47.690,241.917 48.200 M277.431 48.198 C 275.002 48.518,273.222 49.261,271.833 50.532 L 271.083 51.218 271.034 50.026 L 270.985 48.833 266.826 48.833 L 262.667 48.833 262.667 67.917 L 262.667 87.000 266.833 87.000 L 271.000 87.000 271.000 80.333 L 271.000 73.667 271.630 74.297 C 274.459 77.126,280.302 77.703,284.552 75.574 C 287.050 74.323,290.112 70.993,290.751 68.833 C 290.819 68.604,290.938 68.337,291.016 68.239 C 291.093 68.141,291.349 67.278,291.583 66.322 C 294.012 56.396,286.661 46.982,277.431 48.198 M309.000 48.115 C 303.543 48.533,299.432 51.010,297.140 55.260 C 295.270 58.726,294.830 63.321,296.002 67.136 C 296.377 68.355,297.489 70.667,297.701 70.667 C 297.774 70.667,297.833 70.762,297.833 70.878 C 297.833 71.142,299.667 73.075,300.667 73.864 C 302.157 75.040,305.131 76.326,306.993 76.599 C 307.318 76.647,307.714 76.724,307.873 76.770 C 308.033 76.817,309.121 76.853,310.290 76.852 C 315.030 76.845,318.184 75.653,321.034 72.791 C 322.413 71.406,322.463 71.266,321.705 70.909 C 321.363 70.749,320.705 70.377,320.244 70.083 C 319.782 69.790,318.957 69.304,318.410 69.005 C 317.864 68.705,317.035 68.245,316.568 67.983 L 315.719 67.506 315.328 67.923 C 312.865 70.544,306.387 69.882,304.537 66.821 L 303.991 65.917 313.659 65.874 L 323.328 65.831 323.455 65.374 C 323.748 64.328,323.582 59.980,323.194 58.527 C 322.348 55.356,320.519 52.533,318.250 50.899 C 317.883 50.635,317.546 50.381,317.500 50.334 C 316.316 49.136,311.630 47.913,309.000 48.115 M225.196 48.598 C 222.797 49.123,220.886 50.601,219.720 52.833 C 219.531 53.195,219.502 52.961,219.501 51.042 L 219.500 48.833 215.333 48.833 L 211.167 48.833 211.167 62.500 L 211.167 76.167 215.336 76.167 L 219.506 76.167 219.496 69.444 C 219.484 61.126,219.543 60.813,221.445 59.130 C 222.671 58.044,223.859 57.630,225.917 57.572 L 227.583 57.524 227.628 52.929 L 227.672 48.333 226.961 48.350 C 226.570 48.359,225.776 48.471,225.196 48.598 M342.500 48.579 C 339.823 49.216,337.619 50.868,336.822 52.834 L 336.519 53.583 336.509 51.208 L 336.500 48.833 332.417 48.833 L 328.333 48.833 328.333 62.500 L 328.333 76.167 332.417 76.167 L 336.500 76.167 336.500 69.417 C 336.500 65.704,336.501 62.630,336.502 62.584 C 336.503 62.539,336.664 62.070,336.859 61.542 C 337.855 58.855,339.948 57.583,343.375 57.583 L 344.667 57.583 344.667 52.958 L 344.667 48.333 344.042 48.347 C 343.698 48.355,343.004 48.459,342.500 48.579 M367.500 48.988 C 367.500 49.074,367.712 49.617,367.972 50.197 C 368.231 50.776,368.579 51.587,368.744 52.000 C 369.082 52.841,369.047 52.756,370.582 56.417 C 372.873 61.878,373.450 63.265,373.668 63.833 C 373.791 64.154,374.104 64.887,374.363 65.463 C 374.622 66.038,374.833 66.545,374.833 66.589 C 374.833 66.633,375.141 67.400,375.516 68.293 C 375.892 69.186,376.571 70.817,377.026 71.917 C 377.481 73.017,377.924 74.047,378.010 74.206 C 378.999 76.032,375.872 79.078,372.789 79.292 L 371.494 79.381 371.539 83.232 L 371.583 87.083 373.083 87.050 C 379.409 86.908,383.950 83.433,386.432 76.833 C 386.760 75.962,387.132 74.987,387.259 74.667 C 387.386 74.346,388.011 72.583,388.649 70.750 C 389.665 67.831,390.856 64.459,391.829 61.750 C 391.994 61.292,392.621 59.492,393.222 57.750 C 393.823 56.008,394.547 53.946,394.829 53.167 C 395.112 52.387,395.523 51.225,395.742 50.583 C 395.961 49.942,396.192 49.285,396.255 49.125 C 396.362 48.852,396.090 48.833,391.934 48.833 C 388.505 48.833,387.497 48.881,387.487 49.042 C 387.467 49.377,387.385 49.677,386.955 51.000 C 386.731 51.688,386.354 52.887,386.118 53.667 C 385.062 57.139,384.129 60.165,383.819 61.121 C 383.634 61.692,383.450 62.292,383.411 62.455 C 383.157 63.505,382.569 65.333,382.485 65.333 C 382.429 65.333,382.264 64.977,382.117 64.542 C 381.497 62.707,379.047 55.936,378.816 55.417 C 378.734 55.233,378.339 54.146,377.938 53.000 C 377.536 51.854,377.034 50.448,376.821 49.875 L 376.434 48.833 371.967 48.833 C 369.323 48.833,367.500 48.897,367.500 48.988 M66.684 54.628 C 65.382 56.113,62.886 58.895,61.651 60.237 C 61.137 60.794,60.125 61.927,59.401 62.755 C 58.676 63.583,57.737 64.633,57.315 65.089 C 56.148 66.345,54.547 68.110,53.250 69.570 C 52.608 70.292,52.007 70.965,51.915 71.066 C 51.822 71.167,50.738 72.375,49.505 73.750 C 48.273 75.125,46.811 76.737,46.256 77.333 C 45.700 77.929,44.797 78.935,44.248 79.568 C 43.699 80.201,42.831 81.176,42.318 81.734 C 41.805 82.293,41.093 83.082,40.734 83.488 C 40.376 83.894,39.933 84.385,39.750 84.579 C 39.337 85.015,38.276 86.201,36.751 87.929 C 36.110 88.656,35.167 89.700,34.657 90.250 C 34.147 90.800,33.102 91.962,32.336 92.833 C 31.571 93.704,30.488 94.909,29.930 95.512 C 29.373 96.114,28.528 97.052,28.053 97.595 C 27.578 98.139,26.875 98.921,26.491 99.333 C 25.865 100.005,24.791 101.198,23.208 102.975 C 22.535 103.732,22.526 103.635,23.416 105.333 C 23.825 106.112,24.356 107.175,24.596 107.695 L 25.034 108.640 26.325 107.195 C 27.036 106.400,29.145 104.025,31.013 101.917 C 32.881 99.808,34.486 98.000,34.580 97.899 C 34.673 97.798,35.200 97.204,35.750 96.580 C 36.300 95.956,36.825 95.363,36.917 95.261 C 37.309 94.828,38.489 93.487,39.417 92.422 C 39.967 91.790,40.532 91.155,40.672 91.011 C 40.813 90.868,41.488 90.112,42.172 89.333 C 42.857 88.554,43.455 87.879,43.501 87.833 C 43.547 87.787,44.185 87.076,44.917 86.252 C 45.650 85.429,46.325 84.672,46.417 84.570 C 46.508 84.468,47.033 83.872,47.583 83.247 C 48.133 82.621,48.658 82.028,48.750 81.929 C 48.842 81.831,49.442 81.150,50.083 80.417 C 50.725 79.683,51.290 79.046,51.339 79.000 C 51.526 78.824,58.113 71.414,58.657 70.766 C 58.973 70.391,59.611 69.670,60.074 69.165 C 60.537 68.660,61.329 67.772,61.833 67.193 C 62.337 66.614,62.938 65.934,63.167 65.682 C 63.794 64.992,64.793 63.867,66.000 62.493 C 66.596 61.815,67.423 60.882,67.838 60.421 C 68.254 59.960,68.870 59.267,69.209 58.879 L 69.824 58.176 68.579 56.316 C 67.894 55.293,67.333 54.391,67.333 54.311 C 67.333 54.047,67.088 54.167,66.684 54.628 M312.139 55.784 C 313.779 56.469,315.500 58.428,315.500 59.608 C 315.500 59.640,312.880 59.667,309.678 59.667 L 303.857 59.667 304.002 59.161 C 304.842 56.232,309.041 54.489,312.139 55.784 M279.773 56.262 C 284.787 57.881,285.313 66.037,280.557 68.399 C 275.447 70.937,270.198 66.988,271.033 61.234 C 271.620 57.193,275.617 54.920,279.773 56.262 M245.500 56.359 C 252.959 58.326,250.333 69.857,242.665 68.808 C 235.867 67.878,235.708 57.023,242.481 56.219 C 242.904 56.169,243.273 56.107,243.301 56.083 C 243.401 55.994,244.766 56.165,245.500 56.359 M241.500 105.750 L 241.500 124.833 245.572 124.833 L 249.644 124.833 249.706 116.542 C 249.760 109.098,249.797 108.170,250.062 107.468 C 251.590 103.428,257.665 103.275,259.148 107.238 C 259.489 108.150,259.500 108.438,259.500 116.506 L 259.500 124.833 263.583 124.833 L 267.667 124.833 267.657 115.375 C 267.648 106.549,267.626 105.839,267.325 104.750 C 267.147 104.108,266.970 103.462,266.931 103.313 C 265.310 97.099,255.548 94.663,250.552 99.225 L 249.667 100.033 249.667 93.350 L 249.667 86.667 245.583 86.667 L 241.500 86.667 241.500 105.750 M223.833 96.935 C 214.968 98.605,209.749 106.404,211.913 114.750 C 212.056 115.300,212.202 115.870,212.238 116.016 C 213.237 120.040,218.181 124.481,222.500 125.236 C 229.139 126.395,235.055 124.038,237.990 119.063 L 238.301 118.535 237.526 118.101 C 237.099 117.863,236.300 117.404,235.750 117.081 C 235.200 116.758,234.487 116.364,234.167 116.206 C 233.846 116.047,233.546 115.873,233.500 115.819 C 233.355 115.649,231.152 114.459,231.100 114.523 C 231.073 114.556,230.871 114.854,230.651 115.185 C 227.263 120.269,219.039 116.699,219.726 110.443 C 220.346 104.794,228.268 102.773,230.934 107.583 C 231.146 107.964,231.229 107.935,233.128 106.794 C 233.702 106.449,234.204 106.167,234.242 106.167 C 234.420 106.167,238.167 103.830,238.167 103.719 C 238.167 103.040,235.820 100.483,234.125 99.314 C 231.483 97.494,226.717 96.392,223.833 96.935 M283.000 96.948 C 272.100 98.772,267.986 114.983,276.580 122.250 C 277.013 122.617,277.454 122.992,277.559 123.084 C 279.308 124.613,282.250 125.571,285.167 125.560 C 287.743 125.551,289.485 125.060,291.408 123.802 C 291.505 123.739,291.940 123.373,292.375 122.989 L 293.167 122.291 293.167 123.562 L 293.167 124.833 297.250 124.833 L 301.333 124.833 301.333 111.256 L 301.333 97.678 297.208 97.631 L 293.083 97.583 293.138 98.792 C 293.203 100.225,293.208 100.223,292.079 99.191 C 290.117 97.398,286.157 96.420,283.000 96.948 M321.167 96.944 C 319.459 97.209,317.307 98.203,316.355 99.165 C 315.499 100.029,315.500 100.030,315.500 98.708 L 315.500 97.583 311.417 97.631 L 307.333 97.678 307.333 111.256 L 307.333 124.833 311.417 124.833 L 315.500 124.833 315.502 116.792 C 315.504 108.236,315.548 107.688,316.327 106.427 C 317.847 103.968,321.809 103.619,323.923 105.760 C 325.205 107.057,325.179 106.830,325.170 116.412 L 325.162 124.833 329.335 124.833 L 333.508 124.833 333.492 115.875 C 333.474 106.448,333.415 105.542,332.682 103.444 C 331.041 98.752,326.396 96.130,321.167 96.944 M349.000 96.949 C 337.911 98.813,333.741 113.102,342.009 120.902 C 345.336 124.041,349.627 125.151,354.357 124.098 C 355.498 123.844,357.122 122.898,358.208 121.856 L 359.000 121.096 359.000 122.897 C 359.000 125.072,358.730 126.111,357.870 127.247 C 355.491 130.386,348.738 129.798,346.899 126.292 L 346.659 125.834 345.999 126.250 C 345.637 126.479,345.297 126.667,345.245 126.667 C 345.193 126.667,344.756 126.910,344.274 127.208 C 343.792 127.506,343.252 127.840,343.074 127.949 C 342.896 128.059,342.402 128.337,341.977 128.566 C 341.552 128.796,340.860 129.202,340.441 129.468 L 339.677 129.952 340.147 130.684 C 345.174 138.524,360.590 138.396,365.225 130.476 C 366.983 127.472,367.000 127.292,367.000 111.292 L 367.000 97.667 363.000 97.667 L 359.000 97.667 359.000 98.931 L 359.000 100.195 358.016 99.306 C 355.827 97.327,352.274 96.398,349.000 96.949 M384.000 96.930 C 381.280 97.409,379.758 97.958,377.940 99.118 C 370.476 103.875,369.454 115.635,375.977 121.692 C 381.874 127.169,392.564 126.900,397.721 121.146 C 398.677 120.079,398.684 119.933,397.792 119.480 C 397.118 119.137,393.894 117.281,392.682 116.537 L 392.113 116.188 391.432 116.735 C 388.187 119.336,382.386 118.561,380.736 115.307 L 380.328 114.500 389.994 114.500 L 399.660 114.500 399.788 114.042 C 399.858 113.790,399.912 112.496,399.908 111.167 C 399.901 108.917,399.834 108.412,399.278 106.417 C 397.548 100.202,390.449 95.794,384.000 96.930 M388.819 104.673 C 390.023 105.242,390.925 106.171,391.426 107.355 L 391.804 108.250 386.043 108.294 C 382.875 108.318,380.247 108.302,380.203 108.259 C 379.886 107.942,381.619 105.600,382.637 104.968 C 384.173 104.016,387.131 103.874,388.819 104.673 M355.609 105.085 C 357.262 105.895,358.317 107.127,358.761 108.767 C 360.516 115.251,352.507 119.844,347.656 115.137 C 342.435 110.070,348.958 101.825,355.609 105.085 M288.719 104.901 C 292.079 105.881,293.776 109.449,292.753 113.378 C 291.170 119.456,281.974 119.298,280.403 113.166 C 279.008 107.719,283.402 103.351,288.719 104.901 M4.915 128.417 C 5.179 128.875,5.603 129.587,5.858 130.000 C 6.113 130.412,6.448 130.975,6.602 131.250 C 7.062 132.070,9.000 134.997,9.389 135.457 C 11.605 138.082,16.837 143.797,18.355 145.250 C 26.605 153.151,37.450 159.661,47.500 162.745 C 48.188 162.956,49.200 163.281,49.750 163.467 C 52.488 164.392,58.461 165.773,61.750 166.240 C 62.117 166.292,62.604 166.372,62.833 166.417 C 65.339 166.907,70.962 167.253,76.167 167.237 C 79.874 167.226,81.542 167.140,85.833 166.738 C 90.363 166.313,100.815 163.944,103.750 162.678 C 103.933 162.599,104.721 162.292,105.500 161.997 C 106.992 161.432,107.086 161.393,109.333 160.410 C 113.864 158.428,120.436 154.804,123.417 152.644 C 123.783 152.378,124.533 151.846,125.083 151.462 C 126.820 150.250,130.150 147.173,130.162 146.768 C 130.169 146.537,128.452 144.602,126.349 142.473 L 124.429 140.530 123.717 141.057 C 123.326 141.346,122.640 141.846,122.193 142.167 C 121.747 142.487,121.126 142.951,120.815 143.197 C 120.504 143.443,119.763 143.999,119.167 144.433 C 118.571 144.866,117.558 145.615,116.917 146.096 C 113.046 148.997,106.098 153.112,103.024 154.324 C 102.575 154.501,101.880 154.797,101.479 154.982 C 98.941 156.152,92.219 158.299,88.917 158.994 C 74.088 162.117,63.383 162.048,49.998 158.742 C 47.149 158.039,43.121 156.775,41.250 155.998 C 37.916 154.612,34.176 152.859,32.417 151.856 C 31.958 151.595,31.208 151.171,30.750 150.915 C 28.036 149.399,22.872 145.793,20.167 143.525 C 15.198 139.361,10.394 134.570,7.971 131.364 C 6.073 128.854,4.040 126.892,4.915 128.417 " stroke="none" fill="#1c448a" fill-rule="evenodd"></path><path id="path4" d="M347.072 52.750 C 347.072 54.950,347.096 55.827,347.125 54.699 C 347.153 53.571,347.153 51.771,347.124 50.699 C 347.095 49.627,347.072 50.550,347.072 52.750 M292.042 62.250 C 292.044 62.617,292.078 62.747,292.118 62.540 C 292.158 62.332,292.156 62.032,292.115 61.873 C 292.073 61.714,292.040 61.883,292.042 62.250 M310.042 76.948 C 310.202 76.990,310.465 76.990,310.625 76.948 C 310.785 76.906,310.654 76.872,310.333 76.872 C 310.012 76.872,309.881 76.906,310.042 76.948 M293.111 97.611 C 293.050 97.672,293.000 98.209,293.000 98.804 L 293.000 99.885 292.625 99.567 L 292.250 99.250 292.567 99.625 C 293.067 100.214,293.167 100.083,293.167 98.836 L 293.167 97.672 297.292 97.625 L 301.417 97.577 297.319 97.539 C 295.066 97.517,293.172 97.550,293.111 97.611 M309.218 97.625 C 310.392 97.653,312.267 97.653,313.385 97.624 C 314.502 97.596,313.542 97.572,311.250 97.572 C 308.958 97.572,308.044 97.596,309.218 97.625 M360.958 97.625 C 362.081 97.653,363.919 97.653,365.042 97.625 C 366.165 97.596,365.246 97.572,363.000 97.572 C 360.754 97.572,359.835 97.596,360.958 97.625 M293.057 123.583 C 293.058 124.317,293.087 124.596,293.122 124.204 C 293.157 123.812,293.157 123.212,293.121 122.871 C 293.085 122.529,293.057 122.850,293.057 123.583 " stroke="none" fill="#244484" fill-rule="evenodd"></path></g></svg>